<svg xmlns="http://www.w3.org/2000/svg" width="256" height="256" viewBox="0 0 256 256">
  <defs><linearGradient id="g" x1="0" x2="1" y1="0" y2="1">
    <stop offset="0%" stop-color="#c1d4e4"/>
    <stop offset="100%" stop-color="#9aaab6"/></linearGradient></defs>
  <rect width="256" height="256" rx="56" fill="url(#g)"/>
  <g fill="white">
    <path d="M72 88h64a8 8 0 0 1 0 16H72a8 8 0 0 1 0-16zM72 124h80a8 8 0 0 1 0 16H72a8 8 0 0 1 0-16zM72 160h56a8 8 0 0 1 0 16H72a8 8 0 0 1 0-16z"/>
    <path d="M178 76l28 28-70 70a8 8 0 0 1-5.7 2.3H104v-26a8 8 0 0 1 2.3-5.7l71.7-71.6zM192.5 61.5a12 12 0 0 1 17 0l17 17a12 12 0 0 1 0 17L214 108.6l-34-34L192.5 61.5z"/>
  </g>
</svg>